<svg width="100" height="100" viewBox="0 0 100 100" fill="none" xmlns="http://www.w3.org/2000/svg">
<circle cx="50" cy="50" r="49.5" stroke="#D8662A"/>
<rect x="39.7358" y="36.7547" width="22.566" height="2.9434" rx="1.4717" fill="#D8662A"/>
<circle cx="35.3208" cy="38.2264" r="1.4717" fill="#D8662A"/>
<rect x="39.7358" y="48.5283" width="22.566" height="2.9434" rx="1.4717" fill="#D8662A"/>
<circle cx="35.3208" cy="50" r="1.4717" fill="#D8662A"/>
<rect x="39.7358" y="60.3019" width="17.6604" height="2.9434" rx="1.4717" fill="#D8662A"/>
<circle cx="35.3208" cy="61.7736" r="1.4717" fill="#D8662A"/>
<path d="M68.1813 73.6247C67.1159 73.6247 66.1335 73.3978 65.2343 72.9442C64.3448 72.4905 63.6312 71.8869 63.0936 71.1335C62.5658 70.3719 62.3019 69.5375 62.3019 68.6301V67.4878C62.3019 67.3986 62.3508 67.3541 62.4485 67.3541H65.8208C65.899 67.3541 65.9381 67.3986 65.9381 67.4878V68.6301C65.9381 69.1729 66.158 69.6428 66.5978 70.0397C67.0377 70.4286 67.5655 70.6231 68.1813 70.6231C68.8069 70.6231 69.3396 70.4246 69.7795 70.0276C70.2194 69.6225 70.4393 69.1567 70.4393 68.6301C70.4393 68.0225 69.9603 67.4918 69.0024 67.0381C68.846 66.9571 68.6408 66.8599 68.3866 66.7465C68.1422 66.6249 67.849 66.4872 67.5069 66.3333C67.1648 66.1794 66.8324 66.0295 66.5099 65.8837C66.1873 65.7297 65.8745 65.5839 65.5715 65.4462C64.4767 64.9115 63.6606 64.2431 63.123 63.441C62.5951 62.6309 62.3312 61.7235 62.3312 60.7189C62.3312 59.7953 62.6049 58.9609 63.1523 58.2155C63.6997 57.4783 64.4132 56.895 65.2929 56.4656C66.1824 56.0281 67.1452 55.8094 68.1813 55.8094C69.2468 55.8094 70.2242 56.0281 71.1137 56.4656C72.0032 56.9112 72.7119 57.5026 73.2397 58.2399C73.7773 58.9771 74.0461 59.8034 74.0461 60.7189V62.7605C74.0461 62.8253 74.007 62.8577 73.9288 62.8577H70.5566C70.4784 62.8577 70.4393 62.8253 70.4393 62.7605L70.41 60.7189C70.41 60.1356 70.19 59.6617 69.7502 59.2971C69.3103 58.9325 68.7874 58.7502 68.1813 58.7502C67.5655 58.7502 67.0377 58.9447 66.5978 59.3336C66.158 59.7224 65.9381 60.1842 65.9381 60.7189C65.9381 61.2617 66.0749 61.7154 66.3486 62.08C66.6321 62.4446 67.1452 62.7929 67.8881 63.1251C67.9663 63.1575 68.1471 63.2385 68.4306 63.3681C68.7141 63.4978 69.0268 63.6436 69.369 63.8056C69.7209 63.9595 70.0385 64.1013 70.322 64.2309C70.6055 64.3525 70.7765 64.4254 70.8352 64.4497C71.8322 64.9115 72.619 65.4786 73.1957 66.151C73.7822 66.8234 74.0755 67.6498 74.0755 68.6301C74.0755 69.578 73.8115 70.4286 73.2837 71.1821C72.7461 71.9355 72.0326 72.531 71.1431 72.9685C70.2536 73.4059 69.2663 73.6247 68.1813 73.6247Z" fill="#D8662A"/>
<rect x="67.2075" y="53.434" width="2.9434" height="3.56306" fill="#D8662A"/>
<rect x="67.2075" y="72.437" width="2.9434" height="3.56306" fill="#D8662A"/>
<path fill-rule="evenodd" clip-rule="evenodd" d="M67.2075 26.9434H29.9245C29.3827 26.9434 28.9434 27.3827 28.9434 27.9245V72.0755C28.9434 72.6173 29.3827 73.0566 29.9245 73.0566H59.3584V76H29.9245C27.7571 76 26 74.2429 26 72.0755V27.9245C26 25.7571 27.7571 24 29.9245 24H67.2075C69.375 24 71.1321 25.7571 71.1321 27.9245V48.5283H68.1887V27.9245C68.1887 27.3827 67.7494 26.9434 67.2075 26.9434Z" fill="#D8662A"/>
</svg>
