<svg width="100" height="100" viewBox="0 0 100 100" fill="none" xmlns="http://www.w3.org/2000/svg">
<circle cx="50" cy="50" r="49.5" stroke="#D8662A"/>
<g clip-path="url(#clip0_19_182)">
<path d="M41.7457 25.278C42.0734 25.278 42.4065 25.278 42.7341 25.278C43.5171 25.5783 44.2834 25.9175 45.0774 26.1788C47.3485 26.9406 49.6529 27.3965 52.074 26.9406C53.8786 26.6014 55.5833 25.9675 57.2658 25.278C57.5934 25.278 57.9266 25.278 58.2542 25.278C60.0866 25.9397 61.9246 26.5903 63.7515 27.2687C65.0175 27.7357 66.3169 28.0972 67.4274 28.9479C70.3926 31.2277 73.4023 33.4519 76.3952 35.6983C77.7112 36.6825 78.0555 37.9836 77.3781 39.4849C76.3452 41.7703 75.3013 44.0556 74.2629 46.3354C73.4078 48.2148 72.214 48.7542 70.2261 48.1703C69.2488 47.8812 68.2715 47.6087 67.2386 47.3085C67.272 47.5809 67.2831 47.7811 67.3164 47.9701C68.0605 52.0904 68.227 56.2441 67.9827 60.42C67.9327 61.2874 67.9327 62.1826 68.0827 63.0334C68.8323 67.2871 69.6264 71.5353 70.426 75.7834C70.698 77.2236 70.2372 78.0354 68.8212 78.4191C66.4946 79.0474 64.1624 79.6646 61.8358 80.2929C60.0922 80.7656 58.3542 81.2493 56.6161 81.7275H55.8443C55.0891 81.4662 54.6005 80.9713 54.3395 80.1929C53.1679 76.7287 51.9629 73.2757 50.769 69.8226C50.5414 69.161 50.3026 68.4993 50.0194 67.7097C49.9084 67.9988 49.8417 68.1601 49.7806 68.3269C48.4313 72.2136 47.0653 76.0948 45.7493 79.9871C45.4661 80.8323 45.0274 81.4439 44.1723 81.7275H43.4005C43.3227 81.6886 43.245 81.6386 43.1617 81.6163C39.1581 80.5487 35.149 79.4811 31.1454 78.408C29.8961 78.0743 29.3186 77.2403 29.5462 76.0058C30.2848 71.9579 31.051 67.9099 31.8007 63.8619C31.9339 63.1279 32.1227 62.3828 32.1283 61.6432C32.1394 60.4922 31.9784 59.3357 31.9506 58.1847C31.8895 55.4656 31.9784 52.7521 32.3837 50.0609C32.517 49.1656 32.6391 48.2648 32.778 47.3085C31.6063 47.6476 30.5069 47.9813 29.4019 48.2871C27.8915 48.7041 26.5588 48.098 25.9091 46.6746C24.7986 44.2613 23.6991 41.8481 22.6108 39.4238C21.9611 37.9836 22.3165 36.6769 23.577 35.7316C26.3312 33.6631 29.1076 31.6169 31.834 29.5151C33.0112 28.6032 34.2772 27.9415 35.6821 27.4688C37.72 26.7849 39.7301 26.0176 41.7513 25.2836L41.7457 25.278ZM54.9114 76.1226C59.2593 74.8771 63.5516 73.6482 67.8328 72.4249C67.8328 72.247 67.8495 72.1358 67.8328 72.0301C67.3442 69.3834 66.8388 66.7422 66.3613 64.0954C66.2114 63.2502 66.0615 62.3995 66.017 61.5487C65.9837 60.8592 66.1392 60.1586 66.167 59.4636C66.3113 55.7659 66.1336 52.0904 65.5228 48.4372C65.4173 47.8033 65.5784 47.1027 65.4007 46.5022C65.2119 45.8683 64.7232 45.3345 64.44 44.7229C62.8408 41.2476 62.8908 37.6444 63.7459 34.0135C64.0847 32.5789 64.5789 31.1776 65.012 29.7152C62.963 28.9813 60.8585 28.2306 58.6984 27.4633C58.6984 28.6143 58.8095 29.6874 58.6762 30.7328C58.3097 33.6743 56.8438 35.8373 53.973 36.8771C51.8685 37.6389 49.7085 37.6667 47.5262 37.2997C44.0168 36.7103 41.6014 34.1413 41.3071 30.5993C41.2238 29.5818 41.296 28.5531 41.296 27.4633C39.1415 28.2362 37.037 28.9868 34.9047 29.7542C34.988 29.9599 35.0491 30.11 35.1046 30.2602C36.0985 32.8624 36.7704 35.5259 36.8204 38.3339C36.8648 40.8361 36.415 43.2215 35.2045 45.429C34.8658 46.0407 34.3661 46.5967 34.6604 47.3863C34.6937 47.4753 34.627 47.5976 34.6104 47.7088C34.4827 48.5595 34.355 49.4103 34.2328 50.261C33.7497 53.6195 33.6831 56.9892 33.9052 60.3699C33.9441 60.9704 34.0829 61.5932 33.9885 62.1771C33.5387 64.8294 33.0167 67.4706 32.5281 70.1118C32.3837 70.8791 32.2616 71.6465 32.1283 72.4138C36.4983 73.6649 40.7796 74.8882 45.0719 76.1171C45.1441 75.9447 45.2051 75.8112 45.2496 75.6778C46.2046 72.9087 47.1542 70.1396 48.1259 67.3761C48.2425 67.0369 48.4035 66.6866 48.6257 66.4141C49.4031 65.4744 51.2743 65.5077 51.8685 67.2926C52.8402 70.223 53.8731 73.1367 54.9059 76.1282L54.9114 76.1226ZM33.3166 30.8218C33.2277 30.8496 33.1889 30.8496 33.1611 30.8663C30.3347 32.9903 27.5084 35.1089 24.682 37.2385C24.0656 37.7056 24.0045 37.9892 24.3322 38.7065C25.365 40.9918 26.3978 43.2716 27.4362 45.5514C27.9137 46.5912 28.1247 46.6746 29.2186 46.3687C30.3625 46.0518 31.5119 45.7627 32.6502 45.4401C32.8502 45.3845 33.0889 45.2733 33.1944 45.1121C34.2161 43.5663 34.7492 41.8425 34.8991 40.0132C35.1601 36.827 34.4882 33.791 33.311 30.8162L33.3166 30.8218ZM66.7167 30.7662C65.8782 32.8402 65.3118 34.8976 65.1175 37.0439C64.8843 39.5683 65.1397 42.0205 66.328 44.3169C66.6612 44.9564 66.9832 45.4513 67.8328 45.5736C68.9267 45.7348 69.9817 46.1463 71.059 46.4466C71.7864 46.6468 72.1418 46.4855 72.4583 45.7905C73.53 43.444 74.5961 41.0919 75.6622 38.7398C76.0065 37.9836 75.9288 37.6945 75.2569 37.1829C74.5406 36.638 73.8187 36.1042 73.1024 35.5648C70.9923 33.9801 68.8823 32.3954 66.7111 30.7662H66.7167ZM43.1895 27.4744C43.1895 28.6421 43.0673 29.7152 43.2172 30.7495C43.5448 33.0348 44.8164 34.6084 47.0931 35.2479C49.0199 35.7872 50.9689 35.7872 52.8958 35.259C54.4117 34.842 55.6 33.9745 56.2719 32.5066C56.9937 30.9219 57.0659 29.2648 56.7938 27.4855C52.2572 29.4761 47.7372 29.4595 43.195 27.4744H43.1895ZM56.2219 79.887C60.3809 78.7583 64.4956 77.6462 68.6491 76.5174C68.5047 75.7445 68.3714 75.0328 68.2215 74.2543C63.9625 75.472 59.759 76.6787 55.5222 77.8908C55.761 78.5748 55.9831 79.2087 56.2219 79.887ZM31.3953 76.5285C35.5266 77.6351 39.6412 78.736 43.8003 79.8481C44.0279 79.1864 44.2445 78.5581 44.4722 77.8908C40.2076 76.6731 36.0097 75.472 31.7729 74.2599C31.6341 74.9938 31.5119 75.6389 31.3953 76.2839C31.3842 76.3506 31.3953 76.4229 31.3953 76.5341V76.5285Z" fill="#D86628" stroke="#D86628" stroke-miterlimit="10"/>
<path d="M51.9018 63.923C47.5373 63.8952 43.9558 60.6757 43.5004 56.3163C43.4393 55.7214 43.4782 55.1097 43.5004 54.5092C43.5115 54.22 43.4671 54.0644 43.1839 53.9087C41.2793 52.88 40.2965 50.9005 40.6741 48.9043C41.0683 46.7969 42.7119 45.2511 44.9164 45.062C46.5989 44.9174 48.0038 45.568 49.031 46.9359C49.2365 47.2139 49.4197 47.3084 49.7529 47.2139C51.18 46.808 52.607 46.8135 54.0341 47.2139C54.3395 47.3029 54.5172 47.2139 54.706 46.9526C55.8443 45.3845 57.7767 44.7006 59.6202 45.1788C61.4526 45.657 62.8797 47.225 63.1074 49.0266C63.3628 51.0395 62.4521 52.9078 60.7086 53.8253C60.2977 54.0421 60.2366 54.2701 60.2865 54.6816C60.7863 58.9353 57.549 63.1501 53.3289 63.7617C52.8569 63.8285 52.3849 63.8674 51.9129 63.9174L51.9018 63.923ZM51.8852 48.7819C48.2869 48.7819 45.2884 51.7623 45.2829 55.3544C45.2829 58.9575 48.237 61.949 51.8352 61.9824C55.4278 62.0158 58.4597 58.9965 58.4652 55.3766C58.4708 51.7846 55.4834 48.7875 51.8852 48.7819ZM44.0446 52.2016C44.7776 50.4612 45.9603 49.0878 47.5817 48.098C46.6711 47.0137 45.5772 46.669 44.4055 47.0526C43.3394 47.3974 42.562 48.3983 42.5009 49.4992C42.4343 50.7225 43.0007 51.729 44.0446 52.2016ZM56.1664 48.1091C57.8267 49.0989 58.965 50.4946 59.7146 52.2072C60.7863 51.6845 61.3249 50.6892 61.2472 49.4381C61.1805 48.3927 60.3809 47.3918 59.337 47.0471C58.1931 46.669 57.0493 47.036 56.1664 48.1091Z" fill="#D86628"/>
<path d="M54.6782 57.2616C54.6782 58.8352 53.4066 60.103 51.8518 60.0808C50.3026 60.0585 49.0754 58.8185 49.0754 57.2672C49.0754 55.7158 50.3026 54.4703 51.8463 54.4536C53.4066 54.4314 54.6782 55.6936 54.6782 57.2672V57.2616ZM52.8125 57.2783C52.8236 56.7667 52.4016 56.333 51.8852 56.3219C51.3743 56.3108 50.9412 56.7334 50.9301 57.2449C50.919 57.7565 51.341 58.1902 51.8574 58.1958C52.3738 58.2069 52.8014 57.7899 52.8125 57.2727V57.2783Z" fill="#D86628"/>
<path d="M49.0865 51.64C49.5918 51.6511 50.025 52.1071 50.0028 52.602C49.975 53.0802 49.5419 53.5028 49.0643 53.5028C48.559 53.5028 48.1315 53.0635 48.137 52.5519C48.1426 52.0126 48.5424 51.6289 49.0865 51.64Z" fill="#D86628"/>
<path d="M55.6222 52.5408C55.6333 53.0524 55.2113 53.4917 54.7004 53.4972C54.2062 53.4972 53.7565 53.0468 53.7565 52.552C53.7565 52.0738 54.1785 51.6512 54.6616 51.64C55.2002 51.6234 55.6056 52.007 55.6167 52.5408H55.6222Z" fill="#D86628"/>
</g>
<defs>
<clipPath id="clip0_19_182">
<rect width="56" height="57" fill="white" transform="translate(22 25)"/>
</clipPath>
</defs>
</svg>
