<svg width="12" height="20" viewBox="0 0 12 20" fill="none" xmlns="http://www.w3.org/2000/svg">
<path d="M9.69231 0H2.30769C1.03385 0 0 1.01818 0 2.27273V17.7273C0 18.9818 1.03385 20 2.30769 20H9.69231C10.9662 20 12 18.9818 12 17.7273V2.27273C12 1.01818 10.9662 0 9.69231 0ZM6 19.0909C5.23385 19.0909 4.61538 18.4818 4.61538 17.7273C4.61538 16.9727 5.23385 16.3636 6 16.3636C6.76615 16.3636 7.38462 16.9727 7.38462 17.7273C7.38462 18.4818 6.76615 19.0909 6 19.0909ZM10.1538 15.4545H1.84615V2.72727H10.1538V15.4545Z" fill="#D8662A"/>
</svg>
