<svg width="100" height="100" viewBox="0 0 100 100" fill="none" xmlns="http://www.w3.org/2000/svg">
<circle cx="50" cy="50" r="49.5" stroke="#D8662A"/>
<g clip-path="url(#clip0_19_184)">
<path d="M49.4219 71.0283C47.0533 74.6009 44.9773 77.8854 42.7172 81.0351C42.1133 81.876 40.9007 82.8376 40.0278 82.7865C39.2021 82.7354 38.2631 81.5415 37.7158 80.6449C36.5976 78.8098 36.1729 76.0735 34.5876 75.1444C33.106 74.271 30.5015 75.2466 28.3925 75.4139C28.0008 75.4464 27.5951 75.6136 27.227 75.5486C26.1466 75.3581 24.448 75.3767 24.1696 74.7774C23.7685 73.9226 24.1224 72.4267 24.6697 71.5022C26.4061 68.5661 28.3264 65.7276 30.2987 62.9309C31.0866 61.8113 31.1338 61.0727 30.3081 59.8834C24.7783 51.9114 24.8207 41.8257 30.2798 33.9373C35.451 26.4624 45.199 22.5833 54.0269 24.4787C63.7277 26.56 70.909 33.8258 72.3905 43.3773C73.3012 49.2448 72.1593 54.8057 68.6678 59.7347C67.8185 60.9333 67.7005 61.7463 68.5829 62.9774C70.6164 65.8206 72.5509 68.7427 74.3628 71.7298C74.8535 72.5428 75.2498 74.0713 74.8252 74.5962C74.2731 75.2838 72.8624 75.3024 71.8149 75.5997C71.7488 75.6183 71.6639 75.5672 71.5837 75.5579C69.1632 75.3349 66.2662 74.2153 64.4544 75.1444C62.7086 76.041 62.0386 79.0282 60.9628 81.1327C59.7549 83.488 57.9148 83.6599 56.3531 81.4021C54.0647 78.0898 51.8754 74.7077 49.4266 71.0283H49.4219ZM70.2767 46.9731C70.2626 35.5494 61.0761 26.4439 49.5257 26.402C37.8479 26.3602 28.567 35.4936 28.5812 47.0102C28.5954 58.3457 37.914 67.493 49.4455 67.4837C60.9675 67.4744 70.2909 58.2946 70.2767 46.9731ZM32.9598 63.14C30.6856 66.601 28.6001 69.7694 26.2787 73.3001C29.4824 72.9795 32.1435 72.8216 34.7622 72.3988C36.0644 72.1898 36.5929 72.6125 37.06 73.681C38.0225 75.8831 39.0888 78.0433 40.2637 80.552C42.7455 76.7983 44.9584 73.458 47.3694 69.8112C41.7594 69.0632 37.0505 66.9959 32.9598 63.1354V63.14ZM65.884 63.1493C61.7932 67.0191 57.0797 69.0725 51.4743 69.8158C53.942 73.537 56.1785 76.9098 58.5895 80.552C59.8021 77.9829 60.8732 75.8413 61.8216 73.6439C62.2981 72.5382 62.8973 72.2176 64.1477 72.4035C66.7993 72.803 69.4888 72.9795 72.617 73.2954C70.2295 69.6997 68.1441 66.5546 65.884 63.1493Z" fill="#D86628"/>
<path d="M68.3048 46.8613C68.3284 57.1608 59.8968 65.5369 49.4977 65.5555C39.0561 65.5741 30.5585 57.2537 30.5443 47.0054C30.5302 36.6502 38.8438 28.418 49.3562 28.3809C59.8732 28.3437 68.2859 36.5479 68.3095 46.8613H68.3048ZM49.5449 30.6712C40.415 30.6294 32.9554 37.8441 32.9035 46.7638C32.8516 55.8414 40.2782 63.2466 49.4364 63.2373C58.5144 63.228 65.9409 55.925 65.9551 46.9914C65.9693 37.9974 58.6417 30.713 49.5449 30.6758V30.6712Z" fill="#D86628"/>
<path d="M57.8679 41.1704C58.4576 41.714 58.9012 42.1228 59.0097 42.225C55.6597 45.9554 52.3522 49.6395 48.889 53.4954C46.4166 51.3537 44.3264 49.5419 42.1229 47.6325C42.6278 47.0147 43.0477 46.5036 43.5762 45.8579C45.2181 47.2377 46.7516 48.5338 48.4502 49.9647C51.5359 47.0843 54.5886 44.2319 57.8679 41.1704Z" fill="#D86628"/>
</g>
<defs>
<clipPath id="clip0_19_184">
<rect width="51" height="59" fill="white" transform="translate(24 24)"/>
</clipPath>
</defs>
</svg>
