<svg width="100" height="100" viewBox="0 0 100 100" fill="none" xmlns="http://www.w3.org/2000/svg">
<circle cx="50" cy="50" r="49.5" stroke="#D8662A"/>
<g clip-path="url(#clip0_19_183)">
<path d="M46.2167 45.5759C47.3121 46.2037 47.3266 46.2066 47.13 47.3265C46.8439 48.968 46.7138 50.6006 47.2774 52.2097C47.7398 53.527 48.5982 54.473 49.8959 54.9652C50.7427 55.2864 51.3323 55.0948 51.8583 54.3433C52.0029 54.1371 52.1503 53.919 52.2341 53.6832C53.1445 51.1399 54.078 48.6025 54.9335 46.0386C55.4104 44.6123 55.0838 43.3126 54.1011 42.1544C52.7601 40.5748 51.1618 39.3135 49.4884 38.1376C49.3034 38.008 49.1156 37.8871 48.9277 37.7604L48.9393 37.56C49.3352 37.56 49.7543 37.4775 50.1271 37.5718C53.6763 38.4736 57.2167 39.399 60.7572 40.3361C60.9508 40.3862 61.1734 40.5601 61.2659 40.7399C64.3323 46.6398 67.3844 52.5486 70.474 58.5311C69.7774 59.0704 69.0953 59.5949 68.4133 60.1225C66.2919 57.1519 62.8612 57.0281 61.7312 60.5233C58.789 59.0085 56.0462 60.9918 56.1011 63.7797C55.0289 63.653 54.0722 63.9094 53.3641 64.7965C52.7052 65.6216 52.4653 66.5971 52.4653 67.6904C50.9219 67.2926 49.6416 67.6462 48.9248 69.0696C48.5924 69.7298 48.5578 70.5726 48.4942 71.3418C48.4624 71.7338 48.4422 72.0226 48.0375 72.1404C47.367 72.3349 46.7052 72.6444 46.0231 72.6974C44.7514 72.7947 44.0318 72.1139 43.7832 70.7524C45.8526 69.3496 47.9335 67.9409 50.0144 66.5293C50.0896 66.4792 50.1618 66.4232 50.2398 66.3731C50.6213 66.1226 51.0086 65.8397 50.6676 65.321C50.3439 64.8318 49.9508 64.9968 49.5462 65.2768C48.4942 66.0047 47.4248 66.712 46.3641 67.4281C45.2659 68.1708 44.1647 68.9105 43.0722 69.662C42.156 70.2897 41.1445 70.4783 40.0751 70.3339C38.867 70.1718 37.7919 68.8457 37.9017 67.6138C37.9248 67.3515 38.156 67.0215 38.3844 66.8741C40.7687 65.3358 43.1734 63.8298 45.5722 62.3151C45.7254 62.2178 45.9508 62.1471 46.0115 62.0027C46.1329 61.7227 46.1618 61.4044 46.2283 61.1009C45.9277 61.0449 45.5664 60.8563 45.3352 60.9624C44.737 61.2335 44.1936 61.6313 43.6329 61.9879C41.5462 63.3082 39.4797 64.6668 37.3612 65.934C36.7774 66.2818 36.0491 66.4998 35.3757 66.5411C34.0693 66.6207 33.1936 65.4006 33.4971 64.1068C33.7572 63.0076 34.5 62.3209 35.3959 61.7581C37.7398 60.2846 40.0896 58.8199 42.4219 57.3257C42.6647 57.1695 42.9393 56.8778 42.9768 56.6155C43.0578 56.0526 42.419 55.8139 41.841 56.1764C39.7832 57.4613 37.7254 58.7403 35.6792 60.0429C34.2427 60.9565 32.7774 61.7934 31.0664 62.0321C30.7312 62.0793 30.3786 62.0999 30.0491 62.0439C28.6907 61.8111 28.13 60.7797 28.5693 59.3297C28.8583 58.3719 29.3844 57.5762 30.2023 56.9927C35.5404 53.1911 40.8728 49.3894 46.2196 45.5789L46.2167 45.5759Z" fill="#D86628"/>
<path d="M62.078 39.452C65.4508 37.616 68.737 35.8272 72.0953 34C75.7225 41.0228 79.341 48.0278 83 55.1096C79.6849 56.9161 76.367 58.7226 72.9855 60.5645C69.3555 53.5388 65.737 46.5337 62.078 39.4491V39.452ZM76.6936 54.2078C76.6878 53.4533 76.0433 52.7844 75.315 52.7785C74.604 52.7726 73.9335 53.4681 73.9277 54.2137C73.9219 55.0211 74.5751 55.6813 75.3555 55.6577C76.1242 55.6341 76.6994 55.0123 76.6936 54.2078Z" fill="#D86628"/>
<path d="M26.3526 60.5645C23.1936 58.8935 20.1069 57.2609 17 55.6194C20.6329 48.5878 24.2486 41.5915 27.9046 34.5128C31.0144 36.1543 34.0925 37.781 37.2601 39.449C33.6243 46.4865 30.0058 53.4946 26.3555 60.5645H26.3526ZM24.0434 52.7784C23.3237 52.7637 22.6416 53.4386 22.6272 54.1842C22.6098 54.9563 23.2139 55.6282 23.9595 55.6606C24.7312 55.696 25.4191 55.027 25.4249 54.2343C25.4306 53.4916 24.7688 52.7932 24.0434 52.7784Z" fill="#D86628"/>
<path d="M48.7023 45.4698C47.9508 45.0219 47.0722 44.4973 46.315 44.0464C41.3381 47.7155 36.237 51.1753 31.1994 54.7294C31.0693 54.8207 30.9364 54.9033 30.7023 54.9298C30.815 54.697 30.9248 54.4642 31.0462 54.2343C33.3439 49.8079 35.6358 45.3814 37.9566 40.9668C38.13 40.6367 38.4826 40.342 38.8179 40.1681C40.5 39.3046 42.2109 38.4972 43.9017 37.6455C44.5173 37.3331 45.1098 37.3066 45.7398 37.5747C48.6907 38.8361 51.1734 40.7605 53.2861 43.1888C53.9971 44.0052 53.9739 45.0013 53.6445 45.9561C52.8266 48.3373 51.9768 50.7067 51.0982 53.0643C50.7976 53.8748 50.5491 53.9219 49.8063 53.4651C48.6502 52.7519 48.2196 51.582 48.2456 50.3236C48.2803 48.7381 48.5346 47.1585 48.7052 45.4728L48.7023 45.4698Z" fill="#D86628"/>
<path d="M61.2832 68.3182C60.4393 68.3034 59.9335 68.1502 59.578 67.5342C59.1213 66.7385 58.5577 66.0018 58.0433 65.2415C57.1445 63.9094 57.2658 62.5066 58.3497 61.7286C59.4277 60.9535 61.0722 61.319 61.8786 62.5508C62.5173 63.5322 63.1242 64.543 63.6965 65.5656C63.8179 65.7837 63.8179 66.1521 63.734 66.4026C63.3583 67.5195 62.2369 68.2975 61.2861 68.3182H61.2832Z" fill="#D86628"/>
<path d="M53.7745 67.3426C53.8266 67.0479 53.8497 66.7444 53.9364 66.4615C54.1387 65.7807 54.5086 65.2149 55.2543 65.1088C56 65.0027 56.5664 65.3563 56.9826 65.99C57.4913 66.7621 58.0144 67.5195 58.5289 68.2857C59.2659 69.3849 58.5896 70.8997 57.2832 71.0176C56.1792 71.1178 55.2225 70.8761 54.6589 69.7297C54.2832 68.9635 53.7543 68.271 53.7774 67.3426H53.7745Z" fill="#D86628"/>
<path d="M67.8121 62.1559C67.8092 63.6648 66.5433 65.0616 65.3468 65.1471C65.1763 65.1589 64.9219 65.0145 64.8208 64.8612C64.3034 64.0714 63.8092 63.264 63.3323 62.4476C62.8555 61.6284 62.9971 60.3405 63.6098 59.7187C64.2196 59.0998 65.2399 59.0527 66.1271 59.6804C67.0722 60.3523 67.7716 61.2128 67.815 62.1559H67.8121Z" fill="#D86628"/>
<path d="M54.0144 71.6866C54.0029 71.8251 54 71.9666 53.9797 72.1021C53.8526 72.9273 53.5231 73.6493 52.6994 73.9146C51.9104 74.1651 51.237 73.8379 50.6936 73.2132C50.1011 72.5324 49.6965 71.775 49.7312 70.8408C49.7572 70.0864 49.9826 69.4027 50.685 69.0402C51.3555 68.6954 52.0347 68.8486 52.6156 69.273C53.4162 69.8595 53.8844 70.6817 54.0144 71.6866Z" fill="#D86628"/>
</g>
<defs>
<clipPath id="clip0_19_183">
<rect width="66" height="40" fill="white" transform="translate(17 34)"/>
</clipPath>
</defs>
</svg>
