<svg width="18" height="18" viewBox="0 0 18 18" fill="none" xmlns="http://www.w3.org/2000/svg">
<mask id="mask0_10_241" style="mask-type:alpha" maskUnits="userSpaceOnUse" x="0" y="0" width="18" height="18">
<g clip-path="url(#clip0_10_241)">
<path d="M17.9856 9.2929C17.9856 4.49199 14.0937 0.600098 9.29278 0.600098C4.49187 0.600098 0.599976 4.49199 0.599976 9.2929C0.599976 13.6317 3.77879 17.228 7.93453 17.8801V11.8057H5.72737V9.2929H7.93453V7.37777C7.93453 5.19913 9.23234 3.99572 11.2179 3.99572C12.169 3.99572 13.1638 4.1655 13.1638 4.1655V6.30475H12.0677C10.9879 6.30475 10.651 6.97488 10.651 7.66232V9.2929H13.0619L12.6765 11.8057H10.651V17.8801C14.8068 17.228 17.9856 13.6318 17.9856 9.2929Z" fill="white"/>
</g>
</mask>
<g mask="url(#mask0_10_241)">
<ellipse cx="9.29037" cy="9.29024" rx="8.70968" ry="8.70968" fill="#D8662A"/>
</g>
<defs>
<clipPath id="clip0_10_241">
<rect width="18" height="18" fill="white"/>
</clipPath>
</defs>
</svg>
