<svg width="169" height="25" viewBox="0 0 169 25" fill="none" xmlns="http://www.w3.org/2000/svg">
<path d="M0.656006 24V1.6H11.6C14.416 1.6 16.528 2.13333 17.936 3.2C19.3653 4.26666 20.08 5.67466 20.08 7.424C20.08 8.59733 19.792 9.62133 19.216 10.496C18.64 11.3493 17.8507 12.0107 16.848 12.48C15.8453 12.9493 14.6933 13.184 13.392 13.184L14 11.872C15.408 11.872 16.656 12.1067 17.744 12.576C18.832 13.024 19.6747 13.696 20.272 14.592C20.8907 15.488 21.2 16.5867 21.2 17.888C21.2 19.808 20.4427 21.312 18.928 22.4C17.4133 23.4667 15.184 24 12.24 24H0.656006ZM5.80801 20.096H11.856C13.2 20.096 14.2133 19.8827 14.896 19.456C15.6 19.008 15.952 18.304 15.952 17.344C15.952 16.4053 15.6 15.712 14.896 15.264C14.2133 14.7947 13.2 14.56 11.856 14.56H5.42401V10.784H10.96C12.2187 10.784 13.1787 10.5707 13.84 10.144C14.5227 9.696 14.864 9.024 14.864 8.128C14.864 7.25333 14.5227 6.60266 13.84 6.176C13.1787 5.728 12.2187 5.504 10.96 5.504H5.80801V20.096Z" fill="white"/>
<path d="M32.9648 24.256C31.1301 24.256 29.4981 23.872 28.0688 23.104C26.6608 22.336 25.5408 21.2907 24.7088 19.968C23.8981 18.624 23.4928 17.0987 23.4928 15.392C23.4928 13.664 23.8981 12.1387 24.7088 10.816C25.5408 9.472 26.6608 8.42666 28.0688 7.68C29.4981 6.912 31.1301 6.528 32.9648 6.528C34.7781 6.528 36.3994 6.912 37.8288 7.68C39.2581 8.42666 40.3781 9.46133 41.1888 10.784C41.9994 12.1067 42.4048 13.6427 42.4048 15.392C42.4048 17.0987 41.9994 18.624 41.1888 19.968C40.3781 21.2907 39.2581 22.336 37.8288 23.104C36.3994 23.872 34.7781 24.256 32.9648 24.256ZM32.9648 20.16C33.7968 20.16 34.5434 19.968 35.2048 19.584C35.8661 19.2 36.3888 18.656 36.7728 17.952C37.1568 17.2267 37.3488 16.3733 37.3488 15.392C37.3488 14.3893 37.1568 13.536 36.7728 12.832C36.3888 12.128 35.8661 11.584 35.2048 11.2C34.5434 10.816 33.7968 10.624 32.9648 10.624C32.1328 10.624 31.3861 10.816 30.7248 11.2C30.0634 11.584 29.5301 12.128 29.1248 12.832C28.7408 13.536 28.5488 14.3893 28.5488 15.392C28.5488 16.3733 28.7408 17.2267 29.1248 17.952C29.5301 18.656 30.0634 19.2 30.7248 19.584C31.3861 19.968 32.1328 20.16 32.9648 20.16Z" fill="white"/>
<path d="M56.2055 6.528C57.5708 6.528 58.7868 6.80533 59.8535 7.36C60.9415 7.89333 61.7948 8.72533 62.4135 9.856C63.0322 10.9653 63.3415 12.3947 63.3415 14.144V24H58.3495V14.912C58.3495 13.5253 58.0402 12.5013 57.4215 11.84C56.8242 11.1787 55.9708 10.848 54.8615 10.848C54.0722 10.848 53.3575 11.0187 52.7175 11.36C52.0988 11.68 51.6082 12.1813 51.2455 12.864C50.9042 13.5467 50.7335 14.4213 50.7335 15.488V24H45.7415V6.784H50.5095V11.552L49.6135 10.112C50.2322 8.96 51.1175 8.07466 52.2695 7.456C53.4215 6.83733 54.7335 6.528 56.2055 6.528Z" fill="white"/>
<path d="M75.3865 24.192C73.7225 24.192 72.1225 23.9253 70.5865 23.392C69.0718 22.8373 67.8985 22.1333 67.0665 21.28L67.9945 19.456C68.7838 20.224 69.8398 20.8747 71.1625 21.408C72.5065 21.92 73.9145 22.176 75.3865 22.176C76.7945 22.176 77.9358 22.0053 78.8105 21.664C79.7065 21.3013 80.3572 20.8213 80.7625 20.224C81.1892 19.6267 81.4025 18.9653 81.4025 18.24C81.4025 17.3653 81.1465 16.6613 80.6345 16.128C80.1438 15.5947 79.4932 15.1787 78.6825 14.88C77.8718 14.56 76.9758 14.2827 75.9945 14.048C75.0132 13.8133 74.0318 13.568 73.0505 13.312C72.0692 13.0347 71.1625 12.672 70.3305 12.224C69.5198 11.776 68.8585 11.1893 68.3465 10.464C67.8558 9.71733 67.6105 8.74666 67.6105 7.552C67.6105 6.44266 67.8985 5.42933 68.4745 4.512C69.0718 3.57333 69.9785 2.82666 71.1945 2.272C72.4105 1.696 73.9678 1.408 75.8665 1.408C77.1252 1.408 78.3732 1.58933 79.6105 1.952C80.8478 2.29333 81.9145 2.77333 82.8105 3.392L82.0105 5.28C81.0505 4.64 80.0265 4.17066 78.9385 3.872C77.8718 3.57333 76.8372 3.424 75.8345 3.424C74.4905 3.424 73.3812 3.60533 72.5065 3.968C71.6318 4.33066 70.9812 4.82133 70.5545 5.44C70.1492 6.03733 69.9465 6.72 69.9465 7.488C69.9465 8.36266 70.1918 9.06666 70.6825 9.6C71.1945 10.1333 71.8558 10.5493 72.6665 10.848C73.4985 11.1467 74.4052 11.4133 75.3865 11.648C76.3678 11.8827 77.3385 12.1387 78.2985 12.416C79.2798 12.6933 80.1758 13.056 80.9865 13.504C81.8185 13.9307 82.4798 14.5067 82.9705 15.232C83.4825 15.9573 83.7385 16.9067 83.7385 18.08C83.7385 19.168 83.4398 20.1813 82.8425 21.12C82.2452 22.0373 81.3278 22.784 80.0905 23.36C78.8745 23.9147 77.3065 24.192 75.3865 24.192Z" fill="white"/>
<path d="M93.73 24.16C92.1513 24.16 90.9353 23.7333 90.082 22.88C89.2287 22.0267 88.802 20.8213 88.802 19.264V3.488H91.074V19.136C91.074 20.1173 91.3193 20.8747 91.81 21.408C92.322 21.9413 93.0473 22.208 93.986 22.208C94.9887 22.208 95.8207 21.92 96.482 21.344L97.282 22.976C96.834 23.3813 96.29 23.68 95.65 23.872C95.0313 24.064 94.3913 24.16 93.73 24.16ZM85.794 9.088V7.2H96.194V9.088H85.794Z" fill="white"/>
<path d="M108.362 24.16C106.933 24.16 105.685 23.8933 104.618 23.36C103.551 22.8267 102.719 22.0267 102.122 20.96C101.546 19.8933 101.258 18.56 101.258 16.96V7.2H103.53V16.704C103.53 18.496 103.967 19.8507 104.842 20.768C105.738 21.664 106.986 22.112 108.586 22.112C109.759 22.112 110.773 21.8773 111.626 21.408C112.501 20.9173 113.162 20.2133 113.61 19.296C114.079 18.3787 114.314 17.28 114.314 16V7.2H116.586V24H114.41V19.392L114.762 20.224C114.229 21.4613 113.397 22.432 112.266 23.136C111.157 23.8187 109.855 24.16 108.362 24.16Z" fill="white"/>
<path d="M129.606 24.16C128.006 24.16 126.566 23.7973 125.286 23.072C124.027 22.3467 123.035 21.344 122.31 20.064C121.585 18.7627 121.222 17.2693 121.222 15.584C121.222 13.8773 121.585 12.384 122.31 11.104C123.035 9.824 124.027 8.832 125.286 8.128C126.566 7.40266 128.006 7.04 129.606 7.04C131.078 7.04 132.39 7.37066 133.542 8.032C134.715 8.69333 135.643 9.664 136.326 10.944C137.03 12.2027 137.382 13.7493 137.382 15.584C137.382 17.3973 137.041 18.944 136.358 20.224C135.675 21.504 134.747 22.4853 133.574 23.168C132.422 23.8293 131.099 24.16 129.606 24.16ZM129.766 22.144C130.961 22.144 132.027 21.8773 132.966 21.344C133.926 20.7893 134.673 20.0213 135.206 19.04C135.761 18.0373 136.038 16.8853 136.038 15.584C136.038 14.2613 135.761 13.1093 135.206 12.128C134.673 11.1467 133.926 10.3893 132.966 9.856C132.027 9.30133 130.961 9.024 129.766 9.024C128.593 9.024 127.537 9.30133 126.598 9.856C125.659 10.3893 124.913 11.1467 124.358 12.128C123.803 13.1093 123.526 14.2613 123.526 15.584C123.526 16.8853 123.803 18.0373 124.358 19.04C124.913 20.0213 125.659 20.7893 126.598 21.344C127.537 21.8773 128.593 22.144 129.766 22.144ZM136.102 24V18.944L136.326 15.552L136.006 12.16V0.255997H138.278V24H136.102Z" fill="white"/>
<path d="M144.605 24V7.2H146.878V24H144.605ZM145.758 3.488C145.288 3.488 144.894 3.328 144.574 3.008C144.254 2.688 144.094 2.304 144.094 1.856C144.094 1.408 144.254 1.03466 144.574 0.735996C144.894 0.415997 145.288 0.255997 145.758 0.255997C146.227 0.255997 146.621 0.40533 146.941 0.703997C147.261 1.00266 147.421 1.376 147.421 1.824C147.421 2.29333 147.261 2.688 146.941 3.008C146.643 3.328 146.248 3.488 145.758 3.488Z" fill="white"/>
<path d="M160.047 24.16C158.426 24.16 156.965 23.7973 155.663 23.072C154.383 22.3253 153.37 21.312 152.623 20.032C151.877 18.7307 151.503 17.248 151.503 15.584C151.503 13.8987 151.877 12.416 152.623 11.136C153.37 9.856 154.383 8.85333 155.663 8.128C156.943 7.40266 158.405 7.04 160.047 7.04C161.711 7.04 163.183 7.40266 164.463 8.128C165.765 8.85333 166.778 9.856 167.503 11.136C168.25 12.416 168.623 13.8987 168.623 15.584C168.623 17.248 168.25 18.7307 167.503 20.032C166.778 21.312 165.765 22.3253 164.463 23.072C163.162 23.7973 161.69 24.16 160.047 24.16ZM160.047 22.144C161.263 22.144 162.341 21.8773 163.279 21.344C164.218 20.7893 164.954 20.0213 165.487 19.04C166.042 18.0373 166.319 16.8853 166.319 15.584C166.319 14.2613 166.042 13.1093 165.487 12.128C164.954 11.1467 164.218 10.3893 163.279 9.856C162.341 9.30133 161.274 9.024 160.079 9.024C158.885 9.024 157.818 9.30133 156.879 9.856C155.941 10.3893 155.194 11.1467 154.639 12.128C154.085 13.1093 153.807 14.2613 153.807 15.584C153.807 16.8853 154.085 18.0373 154.639 19.04C155.194 20.0213 155.941 20.7893 156.879 21.344C157.818 21.8773 158.874 22.144 160.047 22.144Z" fill="white"/>
</svg>
