<svg width="169" height="25" viewBox="0 0 169 25" fill="none" xmlns="http://www.w3.org/2000/svg">
<path d="M0.656006 24.0001V1.6001H11.6C14.416 1.6001 16.528 2.13344 17.936 3.2001C19.3653 4.26677 20.08 5.67477 20.08 7.4241C20.08 8.59744 19.792 9.62144 19.216 10.4961C18.64 11.3494 17.8507 12.0108 16.848 12.4801C15.8453 12.9494 14.6933 13.1841 13.392 13.1841L14 11.8721C15.408 11.8721 16.656 12.1068 17.744 12.5761C18.832 13.0241 19.6747 13.6961 20.272 14.5921C20.8907 15.4881 21.2 16.5868 21.2 17.8881C21.2 19.8081 20.4427 21.3121 18.928 22.4001C17.4133 23.4668 15.184 24.0001 12.24 24.0001H0.656006ZM5.80801 20.0961H11.856C13.2 20.0961 14.2133 19.8828 14.896 19.4561C15.6 19.0081 15.952 18.3041 15.952 17.3441C15.952 16.4054 15.6 15.7121 14.896 15.2641C14.2133 14.7948 13.2 14.5601 11.856 14.5601H5.42401V10.7841H10.96C12.2187 10.7841 13.1787 10.5708 13.84 10.1441C14.5227 9.6961 14.864 9.0241 14.864 8.1281C14.864 7.25344 14.5227 6.60277 13.84 6.1761C13.1787 5.7281 12.2187 5.5041 10.96 5.5041H5.80801V20.0961Z" fill="#D8662A"/>
<path d="M32.9648 24.2561C31.1301 24.2561 29.4981 23.8721 28.0688 23.1041C26.6608 22.3361 25.5408 21.2908 24.7088 19.9681C23.8981 18.6241 23.4928 17.0988 23.4928 15.3921C23.4928 13.6641 23.8981 12.1388 24.7088 10.8161C25.5408 9.4721 26.6608 8.42677 28.0688 7.6801C29.4981 6.9121 31.1301 6.5281 32.9648 6.5281C34.7781 6.5281 36.3994 6.9121 37.8288 7.6801C39.2581 8.42677 40.3781 9.46144 41.1888 10.7841C41.9994 12.1068 42.4048 13.6428 42.4048 15.3921C42.4048 17.0988 41.9994 18.6241 41.1888 19.9681C40.3781 21.2908 39.2581 22.3361 37.8288 23.1041C36.3994 23.8721 34.7781 24.2561 32.9648 24.2561ZM32.9648 20.1601C33.7968 20.1601 34.5434 19.9681 35.2048 19.5841C35.8661 19.2001 36.3888 18.6561 36.7728 17.9521C37.1568 17.2268 37.3488 16.3734 37.3488 15.3921C37.3488 14.3894 37.1568 13.5361 36.7728 12.8321C36.3888 12.1281 35.8661 11.5841 35.2048 11.2001C34.5434 10.8161 33.7968 10.6241 32.9648 10.6241C32.1328 10.6241 31.3861 10.8161 30.7248 11.2001C30.0634 11.5841 29.5301 12.1281 29.1248 12.8321C28.7408 13.5361 28.5488 14.3894 28.5488 15.3921C28.5488 16.3734 28.7408 17.2268 29.1248 17.9521C29.5301 18.6561 30.0634 19.2001 30.7248 19.5841C31.3861 19.9681 32.1328 20.1601 32.9648 20.1601Z" fill="#D8662A"/>
<path d="M56.2055 6.5281C57.5708 6.5281 58.7868 6.80544 59.8535 7.3601C60.9415 7.89344 61.7948 8.72544 62.4135 9.8561C63.0322 10.9654 63.3415 12.3948 63.3415 14.1441V24.0001H58.3495V14.9121C58.3495 13.5254 58.0402 12.5014 57.4215 11.8401C56.8242 11.1788 55.9708 10.8481 54.8615 10.8481C54.0722 10.8481 53.3575 11.0188 52.7175 11.3601C52.0988 11.6801 51.6082 12.1814 51.2455 12.8641C50.9042 13.5468 50.7335 14.4214 50.7335 15.4881V24.0001H45.7415V6.7841H50.5095V11.5521L49.6135 10.1121C50.2322 8.9601 51.1175 8.07477 52.2695 7.4561C53.4215 6.83744 54.7335 6.5281 56.2055 6.5281Z" fill="#D8662A"/>
<path d="M75.3865 24.1921C73.7225 24.1921 72.1225 23.9254 70.5865 23.3921C69.0718 22.8374 67.8985 22.1334 67.0665 21.2801L67.9945 19.4561C68.7838 20.2241 69.8398 20.8748 71.1625 21.4081C72.5065 21.9201 73.9145 22.1761 75.3865 22.1761C76.7945 22.1761 77.9358 22.0054 78.8105 21.6641C79.7065 21.3014 80.3572 20.8214 80.7625 20.2241C81.1892 19.6268 81.4025 18.9654 81.4025 18.2401C81.4025 17.3654 81.1465 16.6614 80.6345 16.1281C80.1438 15.5948 79.4932 15.1788 78.6825 14.8801C77.8718 14.5601 76.9758 14.2828 75.9945 14.0481C75.0132 13.8134 74.0318 13.5681 73.0505 13.3121C72.0692 13.0348 71.1625 12.6721 70.3305 12.2241C69.5198 11.7761 68.8585 11.1894 68.3465 10.4641C67.8558 9.71744 67.6105 8.74677 67.6105 7.5521C67.6105 6.44277 67.8985 5.42944 68.4745 4.5121C69.0718 3.57344 69.9785 2.82677 71.1945 2.2721C72.4105 1.6961 73.9678 1.4081 75.8665 1.4081C77.1252 1.4081 78.3732 1.58944 79.6105 1.9521C80.8478 2.29344 81.9145 2.77344 82.8105 3.3921L82.0105 5.2801C81.0505 4.6401 80.0265 4.17077 78.9385 3.8721C77.8718 3.57344 76.8372 3.4241 75.8345 3.4241C74.4905 3.4241 73.3812 3.60544 72.5065 3.9681C71.6318 4.33077 70.9812 4.82144 70.5545 5.4401C70.1492 6.03744 69.9465 6.7201 69.9465 7.4881C69.9465 8.36277 70.1918 9.06677 70.6825 9.6001C71.1945 10.1334 71.8558 10.5494 72.6665 10.8481C73.4985 11.1468 74.4052 11.4134 75.3865 11.6481C76.3678 11.8828 77.3385 12.1388 78.2985 12.4161C79.2798 12.6934 80.1758 13.0561 80.9865 13.5041C81.8185 13.9308 82.4798 14.5068 82.9705 15.2321C83.4825 15.9574 83.7385 16.9068 83.7385 18.0801C83.7385 19.1681 83.4398 20.1814 82.8425 21.1201C82.2452 22.0374 81.3278 22.7841 80.0905 23.3601C78.8745 23.9148 77.3065 24.1921 75.3865 24.1921Z" fill="#D8662A"/>
<path d="M93.73 24.1601C92.1513 24.1601 90.9353 23.7334 90.082 22.8801C89.2287 22.0268 88.802 20.8214 88.802 19.2641V3.4881H91.074V19.1361C91.074 20.1174 91.3193 20.8748 91.81 21.4081C92.322 21.9414 93.0473 22.2081 93.986 22.2081C94.9887 22.2081 95.8207 21.9201 96.482 21.3441L97.282 22.9761C96.834 23.3814 96.29 23.6801 95.65 23.8721C95.0313 24.0641 94.3913 24.1601 93.73 24.1601ZM85.794 9.0881V7.2001H96.194V9.0881H85.794Z" fill="#D8662A"/>
<path d="M108.362 24.1601C106.933 24.1601 105.685 23.8934 104.618 23.3601C103.551 22.8268 102.719 22.0268 102.122 20.9601C101.546 19.8934 101.258 18.5601 101.258 16.9601V7.2001H103.53V16.7041C103.53 18.4961 103.967 19.8508 104.842 20.7681C105.738 21.6641 106.986 22.1121 108.586 22.1121C109.759 22.1121 110.773 21.8774 111.626 21.4081C112.501 20.9174 113.162 20.2134 113.61 19.2961C114.079 18.3788 114.314 17.2801 114.314 16.0001V7.2001H116.586V24.0001H114.41V19.3921L114.762 20.2241C114.229 21.4614 113.397 22.4321 112.266 23.1361C111.157 23.8188 109.855 24.1601 108.362 24.1601Z" fill="#D8662A"/>
<path d="M129.606 24.1601C128.006 24.1601 126.566 23.7974 125.286 23.0721C124.027 22.3468 123.035 21.3441 122.31 20.0641C121.585 18.7628 121.222 17.2694 121.222 15.5841C121.222 13.8774 121.585 12.3841 122.31 11.1041C123.035 9.8241 124.027 8.8321 125.286 8.1281C126.566 7.40277 128.006 7.0401 129.606 7.0401C131.078 7.0401 132.39 7.37077 133.542 8.0321C134.715 8.69344 135.643 9.66411 136.326 10.9441C137.03 12.2028 137.382 13.7494 137.382 15.5841C137.382 17.3974 137.041 18.9441 136.358 20.2241C135.675 21.5041 134.747 22.4854 133.574 23.1681C132.422 23.8294 131.099 24.1601 129.606 24.1601ZM129.766 22.1441C130.961 22.1441 132.027 21.8774 132.966 21.3441C133.926 20.7894 134.673 20.0214 135.206 19.0401C135.761 18.0374 136.038 16.8854 136.038 15.5841C136.038 14.2614 135.761 13.1094 135.206 12.1281C134.673 11.1468 133.926 10.3894 132.966 9.8561C132.027 9.30144 130.961 9.0241 129.766 9.0241C128.593 9.0241 127.537 9.30144 126.598 9.8561C125.659 10.3894 124.913 11.1468 124.358 12.1281C123.803 13.1094 123.526 14.2614 123.526 15.5841C123.526 16.8854 123.803 18.0374 124.358 19.0401C124.913 20.0214 125.659 20.7894 126.598 21.3441C127.537 21.8774 128.593 22.1441 129.766 22.1441ZM136.102 24.0001V18.9441L136.326 15.5521L136.006 12.1601V0.256104H138.278V24.0001H136.102Z" fill="#D8662A"/>
<path d="M144.605 24.0001V7.2001H146.878V24.0001H144.605ZM145.758 3.4881C145.288 3.4881 144.894 3.3281 144.574 3.0081C144.254 2.6881 144.094 2.3041 144.094 1.8561C144.094 1.4081 144.254 1.03477 144.574 0.736103C144.894 0.416103 145.288 0.256104 145.758 0.256104C146.227 0.256104 146.621 0.405437 146.941 0.704103C147.261 1.00277 147.421 1.3761 147.421 1.8241C147.421 2.29344 147.261 2.6881 146.941 3.0081C146.643 3.3281 146.248 3.4881 145.758 3.4881Z" fill="#D8662A"/>
<path d="M160.047 24.1601C158.426 24.1601 156.965 23.7974 155.663 23.0721C154.383 22.3254 153.37 21.3121 152.623 20.0321C151.877 18.7308 151.503 17.2481 151.503 15.5841C151.503 13.8988 151.877 12.4161 152.623 11.1361C153.37 9.8561 154.383 8.85344 155.663 8.1281C156.943 7.40277 158.405 7.0401 160.047 7.0401C161.711 7.0401 163.183 7.40277 164.463 8.1281C165.765 8.85344 166.778 9.8561 167.503 11.1361C168.25 12.4161 168.623 13.8988 168.623 15.5841C168.623 17.2481 168.25 18.7308 167.503 20.0321C166.778 21.3121 165.765 22.3254 164.463 23.0721C163.162 23.7974 161.69 24.1601 160.047 24.1601ZM160.047 22.1441C161.263 22.1441 162.341 21.8774 163.279 21.3441C164.218 20.7894 164.954 20.0214 165.487 19.0401C166.042 18.0374 166.319 16.8854 166.319 15.5841C166.319 14.2614 166.042 13.1094 165.487 12.1281C164.954 11.1468 164.218 10.3894 163.279 9.8561C162.341 9.30144 161.274 9.0241 160.079 9.0241C158.885 9.0241 157.818 9.30144 156.879 9.8561C155.941 10.3894 155.194 11.1468 154.639 12.1281C154.085 13.1094 153.807 14.2614 153.807 15.5841C153.807 16.8854 154.085 18.0374 154.639 19.0401C155.194 20.0214 155.941 20.7894 156.879 21.3441C157.818 21.8774 158.874 22.1441 160.047 22.1441Z" fill="#D8662A"/>
</svg>
